<?xml version="1.0" encoding="UTF-8" standalone="no"?>
<svg
   xmlns:dc="http://purl.org/dc/elements/1.1/"
   xmlns:cc="http://creativecommons.org/ns#"
   xmlns:rdf="http://www.w3.org/1999/02/22-rdf-syntax-ns#"
   xmlns:svg="http://www.w3.org/2000/svg"
   xmlns="http://www.w3.org/2000/svg"
   xmlns:sodipodi="http://sodipodi.sourceforge.net/DTD/sodipodi-0.dtd"
   xmlns:inkscape="http://www.inkscape.org/namespaces/inkscape"
   version="1.1"
   id="svg4384"
   viewBox="0 0 178.79481 178.9598"
   height="50.506432mm"
   width="50.459869mm"
   inkscape:version="0.91 r13725"
   sodipodi:docname="bsslogo_svg2.svg">
  <sodipodi:namedview
     pagecolor="#ffffff"
     bordercolor="#666666"
     borderopacity="1"
     objecttolerance="10"
     gridtolerance="10"
     guidetolerance="10"
     inkscape:pageopacity="0"
     inkscape:pageshadow="2"
     inkscape:window-width="640"
     inkscape:window-height="480"
     id="namedview3382"
     showgrid="false"
     inkscape:snap-bbox="true"
     inkscape:bbox-paths="true"
     inkscape:bbox-nodes="true"
     inkscape:snap-bbox-edge-midpoints="true"
     inkscape:snap-bbox-midpoints="true"
     inkscape:object-paths="true"
     inkscape:snap-intersection-paths="true"
     inkscape:object-nodes="true"
     inkscape:snap-smooth-nodes="true"
     inkscape:snap-midpoints="true"
     inkscape:snap-object-midpoints="true"
     inkscape:snap-center="true"
     inkscape:zoom="2.4695029"
     inkscape:cx="28.340407"
     inkscape:cy="73.96719"
     inkscape:current-layer="svg4384" />
  <defs
     id="defs4386" />
  <metadata
     id="metadata4389">
    <rdf:RDF>
      <cc:Work
         rdf:about="">
        <dc:format>image/svg+xml</dc:format>
        <dc:type
           rdf:resource="http://purl.org/dc/dcmitype/StillImage" />
        <dc:title />
      </cc:Work>
    </rdf:RDF>
  </metadata>
  <g
     id="g3442">
    <ellipse
       ry="86.979897"
       rx="86.897408"
       cy="89.479897"
       cx="89.397415"
       id="path3440"
       style="opacity:1;fill:#ffffff;fill-opacity:1;stroke:#2d2d2d;stroke-width:0;stroke-linecap:round;stroke-linejoin:round;stroke-miterlimit:4;stroke-dasharray:none;stroke-dashoffset:0;stroke-opacity:0" />
    <g
       id="layer1"
       transform="translate(-209.45337,-690.77692)">
      <path
         style="opacity:1;fill:#0099ff;fill-opacity:1;stroke:none;stroke-width:1;stroke-linecap:butt;stroke-linejoin:miter;stroke-miterlimit:4;stroke-dasharray:none;stroke-dashoffset:2;stroke-opacity:1"
         d="m 299.84304,690.78384 c -0.77764,-0.01 -1.55598,-0.009 -2.33594,0.002 l 0,0.002 c -3.61874,0.0508 -7.25839,0.33182 -10.90234,0.83203 -8.78909,1.14143 -17.04066,3.58277 -25.31055,7.44922 -0.21414,0.0997 -0.42733,0.20135 -0.64063,0.30274 -0.28455,0.13555 -0.56885,0.2634 -0.85351,0.40234 -0.2216,0.10817 -0.43774,0.22416 -0.6582,0.33398 -0.36876,0.18384 -0.73547,0.37172 -1.10157,0.56055 -0.4759,0.24516 -0.94956,0.49324 -1.41992,0.7461 -0.26996,0.14539 -0.53823,0.29329 -0.80664,0.4414 -0.57733,0.31792 -1.15201,0.63931 -1.7207,0.96875 -0.10526,0.0611 -0.20945,0.124 -0.31446,0.18555 -12.37671,7.23653 -22.67423,17.18794 -30.24414,28.94141 -0.47538,0.73808 -0.94084,1.4823 -1.39453,2.23437 -0.0177,0.0292 -0.0351,0.0586 -0.0527,0.0879 -0.42401,0.7047 -0.83943,1.41432 -1.24414,2.13086 -0.0659,0.11666 -0.12987,0.23457 -0.19531,0.35156 -0.3606,0.64519 -0.7138,1.29481 -1.05859,1.94922 -0.088,0.1669 -0.1748,0.3344 -0.26172,0.50195 -0.33788,0.65122 -0.66814,1.30684 -0.99024,1.9668 -0.0247,0.0506 -0.0516,0.0997 -0.0762,0.15039 -0.0738,0.15212 -0.13859,0.29475 -0.21093,0.44531 -0.21964,0.45858 -0.44037,0.91629 -0.65235,1.37891 -2.38993,5.14198 -3.93999,9.49938 -5.26758,14.76758 -0.0408,0.1618 -0.0699,0.28779 -0.10937,0.44531 -0.0847,0.33167 -0.16512,0.66504 -0.2461,0.99805 -0.92738,3.76763 -1.46293,6.40798 -1.7539,9.33984 -0.0532,0.39601 -0.11401,0.79005 -0.16211,1.1875 -0.58908,4.86687 -0.51896,15.64548 0.0996,21.42775 0.25767,3.08094 0.72904,5.65999 1.60742,9.19531 0.47052,2.01606 1.01312,4.0203 1.62891,6.00781 0.0101,0.0331 0.0192,0.0665 0.0293,0.0996 0.18158,0.58364 0.37646,1.16356 0.57031,1.74414 2.00515,6.09227 4.66942,11.90074 7.9043,17.3457 0.25014,0.42491 0.49875,0.85041 0.75586,1.27149 0.10188,0.16518 0.20761,0.32771 0.31054,0.49219 1.98235,3.2008 4.15508,6.29298 6.52735,9.23437 0.94176,1.1677 2.23139,2.59247 3.67187,4.10161 2.2357,2.4233 4.60056,4.7237 7.08399,6.8906 1.70581,1.5439 3.33318,2.9381 4.65625,3.9453 4.69573,3.5746 9.85672,6.693 15.31835,9.3066 0.23967,0.1165 0.48189,0.2275 0.72266,0.3418 0.46989,0.2199 0.93987,0.4401 1.41406,0.6524 4.41829,2.0041 9.01003,3.6544 13.74024,4.9101 3.49519,0.9521 7.0457,1.7097 10.62305,2.2461 0.65854,0.099 1.41819,0.1853 2.23437,0.2617 0.32208,0.053 1.12118,0.1761 1.25977,0.2012 0.6558,0.119 2.54524,0.1505 4.91992,0.1309 4.28468,0.1072 9.00625,0.015 12.75976,-0.3106 1.11567,-0.097 2.22777,-0.2267 3.33985,-0.3711 0.83996,-0.076 1.52909,-0.1533 2.0039,-0.2324 1.52972,-0.2548 3.04504,-0.5561 4.55078,-0.8867 0.0794,-0.017 0.15891,-0.034 0.23829,-0.051 0.43757,-0.097 0.8732,-0.1991 1.30859,-0.3027 0.56551,-0.1323 1.13013,-0.2701 1.69336,-0.4141 0.0886,-0.023 0.17717,-0.045 0.26562,-0.068 2.49152,-0.6457 4.95747,-1.4058 7.39258,-2.2754 0.0823,-0.029 0.16388,-0.06 0.2461,-0.09 0.64297,-0.2318 1.28369,-0.4699 1.92187,-0.7168 0.34024,-0.1307 0.67921,-0.2638 1.01758,-0.3984 0.37369,-0.1499 0.74728,-0.3001 1.11914,-0.4551 0.64663,-0.2675 1.28835,-0.5442 1.92773,-0.8262 9.42124,-4.1549 18.04483,-9.8693 25.49024,-16.8789 0.52325,-0.4884 1.0373,-0.9858 1.54883,-1.4863 l 0.008,-0.01 0.002,0 c 5.10734,-4.99911 9.62619,-10.59306 13.35742,-16.67189 1.8387,-2.99556 3.52583,-6.22844 5.04297,-9.60352 0.0993,-0.21435 0.1919,-0.42863 0.28907,-0.64257 0.0972,-0.22061 0.19534,-0.44033 0.29101,-0.66211 2.89953,-6.51912 4.85493,-12.92658 6.3418,-20.74805 0.0679,-0.3569 0.125,-0.81575 0.1875,-1.22461 0.22104,-1.30736 0.41776,-2.61164 0.57422,-3.90431 0.32315,-2.66979 0.43946,-7.18944 0.37695,-11.59179 0.002,-3.13868 -0.10058,-6.06703 -0.34375,-8.18946 -0.061,-0.53238 -0.13528,-1.06682 -0.20703,-1.60156 -2.6e-4,-0.002 2.6e-4,-0.006 0,-0.008 -1.7e-4,-10e-4 1.8e-4,-0.003 0,-0.004 -0.14921,-1.11112 -0.31927,-2.22616 -0.51367,-3.34375 -0.0288,-0.1681 -0.0622,-0.33419 -0.0918,-0.50195 -0.12636,-0.7029 -0.26071,-1.40583 -0.4043,-2.10938 -0.1223,-0.61006 -0.25076,-1.21694 -0.38476,-1.82226 -1.02675,-4.63818 -2.39558,-9.13388 -4.08203,-13.46289 -0.12724,-0.33092 -0.25806,-0.65965 -0.38868,-0.98828 -0.14844,-0.36823 -0.2942,-0.73781 -0.44726,-1.10352 -1.58977,-3.85564 -3.40509,-7.53627 -5.41602,-10.91211 -1.19293,-2.00262 -2.46134,-3.93928 -3.78711,-5.82226 -0.24523,-0.35108 -0.49595,-0.69759 -0.74609,-1.04493 -0.27399,-0.37769 -0.54894,-0.75433 -0.82813,-1.12695 -0.47916,-0.6438 -0.96682,-1.27989 -1.46289,-1.91016 -0.0106,-0.0135 -0.0207,-0.0275 -0.0312,-0.041 -0.0106,-0.0134 -0.0226,-0.0256 -0.0332,-0.0391 -11.95099,-15.14713 -28.74251,-26.33204 -48.54297,-31.44532 -4.42781,-1.14344 -8.89134,-1.87443 -13.71484,-2.24804 -2.30755,-0.20924 -4.62998,-0.33321 -6.96289,-0.36328 z m -63.72266,44.13867 14.2461,0 0,86.05079 -14.2461,0 0,-86.05079 z m 72.69141,23.93945 c 5.9519,0.0256 10.91814,1.55886 10.84179,1.94141 l -0.002,12.72461 c -14.00174,-8.9461 -24.48869,2.97708 -6.42578,11.96679 12.19124,6.63999 11.55311,15.33867 11.35352,19.57228 -2.05026,25.52135 -34.43682,15.5174 -34.38282,13.90625 l 0.002,-12.22461 c 15.59151,10.6101 30.3112,-1.60767 10.90234,-12.41406 -12.1875,-6.81251 -12.0293,-17.62111 -12.0293,-17.62111 0.23787,-14.70553 11.0413,-17.88902 19.74024,-17.85156 z m 41.89453,0 c 5.9519,0.0256 10.92009,1.55886 10.84375,1.94141 l -0.002,12.72461 c -14.00174,-8.9461 -24.4887,2.97708 -6.42579,11.96679 12.19124,6.63999 11.55311,15.33867 11.35352,19.57228 -2.05026,25.52135 -34.43681,15.5174 -34.38281,13.90625 l 0.002,-12.22461 c 15.59151,10.6101 30.3112,-1.60767 10.90234,-12.41406 -12.1875,-6.81251 -12.02929,-17.62111 -12.02929,-17.62111 0.23787,-14.70553 11.03934,-17.88902 19.73828,-17.85156 z m -86.97266,0.13281 c 2.66435,-0.024 5.3775,0.69225 7.77149,2.16016 7.60349,4.6622 10.27263,18.40671 10.07422,29.23047 0.18868,10.82377 -2.4805,24.56828 -10.08399,29.23048 -6.38396,3.91443 -15.03555,2.4818 -18.98633,-4.07422 l 0.13282,-9.81055 c 2.93795,5.64828 9.0624,4.18783 10.98046,1.16992 1.91479,-3.01274 2.8292,-3.80816 3.15625,-15.78711 -0.32705,-11.97896 -1.23169,-14.23141 -3.14648,-17.24415 -1.91807,-3.01791 -8.04252,-4.47835 -10.98047,1.16993 l -0.13281,-9.81055 c 2.46923,-4.09751 6.77427,-6.19429 11.21484,-6.23438 z"
         id="path4301" />
    </g>
  </g>
</svg>
