<?xml version="1.0" encoding="UTF-8" standalone="no"?>
<!DOCTYPE svg PUBLIC "-//W3C//DTD SVG 1.1//EN" "http://www.w3.org/Graphics/SVG/1.1/DTD/svg11.dtd">
<svg width="100%" height="100%" viewBox="0 0 243 39" version="1.1" xmlns="http://www.w3.org/2000/svg" xmlns:xlink="http://www.w3.org/1999/xlink" xml:space="preserve" xmlns:serif="http://www.serif.com/" style="fill-rule:evenodd;clip-rule:evenodd;stroke-linejoin:round;stroke-miterlimit:2;">
    <g transform="matrix(1,0,0,1,-235.047,-327.949)">
        <g id="rect8581" transform="matrix(1,0,0,1,618.125,-84.7838)">
            <rect x="-154.301" y="429.865" width="12.829" height="4.582" style="fill:url(#_Linear1);"/>
        </g>
        <g id="rect85811" serif:id="rect8581" transform="matrix(1,0,0,1,618.772,-84.7838)">
            <rect x="-154.301" y="429.865" width="12.829" height="4.582" style="fill:url(#_Linear2);"/>
        </g>
        <g id="rect8583" transform="matrix(1,0,0,1,618.125,-84.7838)">
            <rect x="-152.314" y="429.865" width="1.565" height="4.582" style="fill:url(#_Linear3);"/>
        </g>
        <g id="rect85831" serif:id="rect8583" transform="matrix(1,0,0,1,618.772,-84.7838)">
            <rect x="-152.314" y="429.865" width="1.565" height="4.582" style="fill:url(#_Linear4);"/>
        </g>
        <g id="rect8585" transform="matrix(1,0,0,1,618.125,-84.7838)">
            <rect x="-169.098" y="426.948" width="16.845" height="10.416" style="fill:url(#_Linear5);"/>
        </g>
        <g id="rect85851" serif:id="rect8585" transform="matrix(1,0,0,1,618.772,-84.7838)">
            <rect x="-169.098" y="426.948" width="16.845" height="10.416" style="fill:url(#_Linear6);"/>
        </g>
        <g id="rect8587" transform="matrix(1,0,0,1,618.125,-84.7838)">
            <rect x="-168.142" y="426.948" width="1.565" height="10.416" style="fill:url(#_Linear7);"/>
        </g>
        <g id="rect85871" serif:id="rect8587" transform="matrix(1,0,0,1,618.772,-84.7838)">
            <rect x="-168.142" y="426.948" width="1.565" height="10.416" style="fill:url(#_Linear8);"/>
        </g>
        <g transform="matrix(0.428575,0,0,0.428575,230.862,198.497)">
            <ellipse cx="447.673" cy="347.373" rx="1.405" ry="19.423" style="fill:rgb(18,43,62);"/>
        </g>
        <g transform="matrix(0.428575,0,0,0.428575,231.509,198.497)">
            <ellipse cx="447.673" cy="347.373" rx="1.405" ry="19.423" style="fill:rgb(18,43,62);"/>
        </g>
        <g id="rect8589" transform="matrix(1,0,0,1,618.125,-84.7838)">
            <rect x="-175.854" y="426.649" width="7.984" height="11.015" style="fill:url(#_Linear9);"/>
        </g>
        <g id="rect85891" serif:id="rect8589" transform="matrix(1,0,0,1,618.772,-84.7838)">
            <rect x="-175.854" y="426.649" width="7.984" height="11.015" style="fill:url(#_Linear10);"/>
        </g>
        <g id="rect8591" transform="matrix(1,0,0,1,618.125,-84.7838)">
            <rect x="-175.334" y="426.649" width="1.939" height="11.015" style="fill:url(#_Linear11);"/>
        </g>
        <g id="rect85911" serif:id="rect8591" transform="matrix(1,0,0,1,618.772,-84.7838)">
            <rect x="-175.334" y="426.649" width="1.939" height="11.015" style="fill:url(#_Linear12);"/>
        </g>
        <g id="rect8593" transform="matrix(0.500742,0,0,1,530.976,-84.7838)">
            <rect x="-232.273" y="425.443" width="57.404" height="13.427" style="fill:url(#_Linear13);"/>
        </g>
        <g id="rect85931" serif:id="rect8593" transform="matrix(0.500742,0,0,1,531.623,-84.7838)">
            <rect x="-232.273" y="425.443" width="57.404" height="13.427" style="fill:url(#_Linear14);"/>
        </g>
        <g id="rect896" transform="matrix(-1,0,0,1,88.272,-266.782)">
            <rect x="-159.604" y="611.863" width="12.829" height="4.582" style="fill:url(#_Linear15);"/>
        </g>
        <g id="rect8577" transform="matrix(-1,0,0,1,88.272,-266.782)">
            <rect x="-157.617" y="611.863" width="1.565" height="4.582" style="fill:url(#_Linear16);"/>
        </g>
        <g id="rect892" transform="matrix(-1,0,0,1,88.272,-266.782)">
            <rect x="-174.402" y="608.946" width="16.845" height="10.416" style="fill:url(#_Linear17);"/>
        </g>
        <g id="rect8557" transform="matrix(-1,0,0,1,88.272,-266.782)">
            <rect x="-173.446" y="608.946" width="1.565" height="10.416" style="fill:url(#_Linear18);"/>
        </g>
        <g id="rect894" transform="matrix(-1,0,0,1,88.272,-266.782)">
            <rect x="-181.157" y="608.647" width="7.984" height="11.015" style="fill:url(#_Linear19);"/>
        </g>
        <g id="rect898" transform="matrix(-1,0,0,1,88.272,-266.782)">
            <rect x="-180.638" y="608.647" width="1.939" height="11.015" style="fill:url(#_Linear20);"/>
        </g>
        <g id="rect876" transform="matrix(-1,0,0,1,88.272,-266.782)">
            <rect x="-207.859" y="607.441" width="28.19" height="13.427" style="fill:url(#_Linear21);"/>
        </g>
        <g id="rect837" transform="matrix(1,0,0,1,40.1515,-266.782)">
            <path d="M343.491,599.498L375.614,607.441L375.614,620.868L343.491,628.811L287.397,628.811L255.277,620.868L255.277,607.441L287.397,599.498L343.491,599.498Z" style="fill:url(#_Linear22);fill-rule:nonzero;"/>
        </g>
        <g id="path854" transform="matrix(1,0,0,1,88.1491,-266.782)">
            <path d="M239.4,628.811L207.279,620.868L207.279,607.441L239.4,599.498L239.4,628.811Z" style="fill:url(#_Linear23);fill-rule:nonzero;"/>
        </g>
        <g id="path858" transform="matrix(1,0,0,1,40.1515,-266.782)">
            <path d="M343.493,628.811L375.613,620.868L375.613,607.441L343.493,599.498L343.493,628.811Z" style="fill:url(#_Linear24);fill-rule:nonzero;"/>
        </g>
        <g id="path12770" transform="matrix(1,0,0,1,13.8315,-266.782)">
            <path d="M419.366,594.731C420.167,594.726 420.816,603.424 420.816,614.155C420.816,624.886 420.167,633.583 419.366,633.577L408.892,633.577L409.872,614.154L408.892,594.731L419.366,594.731Z" style="fill:url(#_Linear25);fill-rule:nonzero;"/>
        </g>
        <g id="path127701" serif:id="path12770" transform="matrix(1,0,0,1,14.4786,-266.782)">
            <path d="M419.366,594.731C420.167,594.726 420.816,603.424 420.816,614.155C420.816,624.886 420.167,633.583 419.366,633.577L408.892,633.577L409.872,614.154L408.892,594.731L419.366,594.731Z" style="fill:url(#_Linear26);fill-rule:nonzero;"/>
        </g>
        <g id="path12772" transform="matrix(1,0,0,1,-24.9491,1.20472e-05)">
            <path d="M447.629,327.949C448.424,327.955 449.078,336.721 449.078,347.372C449.078,358.023 448.424,366.79 447.629,366.796C447.023,366.799 446.477,361.707 446.268,354.085L447.325,354.085C447.423,355.057 447.543,355.629 447.673,355.629C448.002,355.629 448.27,351.93 448.27,347.373C448.27,342.815 448.002,339.116 447.673,339.116C447.543,339.116 447.423,339.687 447.325,340.658L446.269,340.658C446.479,333.043 447.023,327.954 447.629,327.949Z" style="fill:url(#_Linear27);fill-rule:nonzero;"/>
        </g>
        <g id="path127721" serif:id="path12772" transform="matrix(1,0,0,1,-24.302,1.20472e-05)">
            <path d="M447.629,327.949C448.424,327.955 449.078,336.721 449.078,347.372C449.078,358.023 448.424,366.79 447.629,366.796C447.023,366.799 446.477,361.707 446.268,354.085L447.325,354.085C447.423,355.057 447.543,355.629 447.673,355.629C448.002,355.629 448.27,351.93 448.27,347.373C448.27,342.815 448.002,339.116 447.673,339.116C447.543,339.116 447.423,339.687 447.325,340.658L446.269,340.658C446.479,333.043 447.023,327.954 447.629,327.949Z" style="fill:url(#_Linear28);fill-rule:nonzero;"/>
        </g>
    </g>
    <defs>
        <linearGradient id="_Linear1" x1="0" y1="0" x2="1" y2="0" gradientUnits="userSpaceOnUse" gradientTransform="matrix(2.80593e-16,4.58243,-4.58243,2.80593e-16,-147.886,429.865)"><stop offset="0" style="stop-color:rgb(250,100,0);stop-opacity:1"/><stop offset="1" style="stop-color:rgb(160,64,0);stop-opacity:1"/></linearGradient>
        <linearGradient id="_Linear2" x1="0" y1="0" x2="1" y2="0" gradientUnits="userSpaceOnUse" gradientTransform="matrix(2.80593e-16,4.58243,-4.58243,2.80593e-16,-147.886,429.865)"><stop offset="0" style="stop-color:rgb(250,100,0);stop-opacity:1"/><stop offset="1" style="stop-color:rgb(160,64,0);stop-opacity:1"/></linearGradient>
        <linearGradient id="_Linear3" x1="0" y1="0" x2="1" y2="0" gradientUnits="userSpaceOnUse" gradientTransform="matrix(1.56482,0,0,1.56482,-152.314,432.156)"><stop offset="0" style="stop-color:rgb(15,15,15);stop-opacity:0.24"/><stop offset="1" style="stop-color:rgb(26,26,26);stop-opacity:0"/></linearGradient>
        <linearGradient id="_Linear4" x1="0" y1="0" x2="1" y2="0" gradientUnits="userSpaceOnUse" gradientTransform="matrix(1.56482,0,0,1.56482,-152.314,432.156)"><stop offset="0" style="stop-color:rgb(15,15,15);stop-opacity:0.24"/><stop offset="1" style="stop-color:rgb(26,26,26);stop-opacity:0"/></linearGradient>
        <linearGradient id="_Linear5" x1="0" y1="0" x2="1" y2="0" gradientUnits="userSpaceOnUse" gradientTransform="matrix(6.37808e-16,10.4162,-10.4162,6.37808e-16,-160.676,426.948)"><stop offset="0" style="stop-color:rgb(236,236,236);stop-opacity:1"/><stop offset="1" style="stop-color:rgb(185,185,185);stop-opacity:1"/></linearGradient>
        <linearGradient id="_Linear6" x1="0" y1="0" x2="1" y2="0" gradientUnits="userSpaceOnUse" gradientTransform="matrix(6.37808e-16,10.4162,-10.4162,6.37808e-16,-160.676,426.948)"><stop offset="0" style="stop-color:rgb(236,236,236);stop-opacity:1"/><stop offset="1" style="stop-color:rgb(185,185,185);stop-opacity:1"/></linearGradient>
        <linearGradient id="_Linear7" x1="0" y1="0" x2="1" y2="0" gradientUnits="userSpaceOnUse" gradientTransform="matrix(1.56482,0,0,1.56482,-168.142,432.156)"><stop offset="0" style="stop-color:rgb(15,15,15);stop-opacity:0.24"/><stop offset="1" style="stop-color:rgb(26,26,26);stop-opacity:0"/></linearGradient>
        <linearGradient id="_Linear8" x1="0" y1="0" x2="1" y2="0" gradientUnits="userSpaceOnUse" gradientTransform="matrix(1.56482,0,0,1.56482,-168.142,432.156)"><stop offset="0" style="stop-color:rgb(15,15,15);stop-opacity:0.24"/><stop offset="1" style="stop-color:rgb(26,26,26);stop-opacity:0"/></linearGradient>
        <linearGradient id="_Linear9" x1="0" y1="0" x2="1" y2="0" gradientUnits="userSpaceOnUse" gradientTransform="matrix(6.74502e-16,11.0155,-11.0155,6.74502e-16,-171.862,426.649)"><stop offset="0" style="stop-color:rgb(250,100,0);stop-opacity:1"/><stop offset="1" style="stop-color:rgb(160,64,0);stop-opacity:1"/></linearGradient>
        <linearGradient id="_Linear10" x1="0" y1="0" x2="1" y2="0" gradientUnits="userSpaceOnUse" gradientTransform="matrix(6.74502e-16,11.0155,-11.0155,6.74502e-16,-171.862,426.649)"><stop offset="0" style="stop-color:rgb(250,100,0);stop-opacity:1"/><stop offset="1" style="stop-color:rgb(160,64,0);stop-opacity:1"/></linearGradient>
        <linearGradient id="_Linear11" x1="0" y1="0" x2="1" y2="0" gradientUnits="userSpaceOnUse" gradientTransform="matrix(1.939,0,0,1.939,-175.334,432.156)"><stop offset="0" style="stop-color:rgb(15,15,15);stop-opacity:0.31"/><stop offset="1" style="stop-color:rgb(26,26,26);stop-opacity:0"/></linearGradient>
        <linearGradient id="_Linear12" x1="0" y1="0" x2="1" y2="0" gradientUnits="userSpaceOnUse" gradientTransform="matrix(1.939,0,0,1.939,-175.334,432.156)"><stop offset="0" style="stop-color:rgb(15,15,15);stop-opacity:0.31"/><stop offset="1" style="stop-color:rgb(26,26,26);stop-opacity:0"/></linearGradient>
        <linearGradient id="_Linear13" x1="0" y1="0" x2="1" y2="0" gradientUnits="userSpaceOnUse" gradientTransform="matrix(8.22155e-16,13.4268,-13.4268,8.22155e-16,-203.571,425.443)"><stop offset="0" style="stop-color:rgb(109,109,109);stop-opacity:1"/><stop offset="1" style="stop-color:rgb(26,26,26);stop-opacity:1"/></linearGradient>
        <linearGradient id="_Linear14" x1="0" y1="0" x2="1" y2="0" gradientUnits="userSpaceOnUse" gradientTransform="matrix(8.22155e-16,13.4268,-13.4268,8.22155e-16,-203.571,425.443)"><stop offset="0" style="stop-color:rgb(109,109,109);stop-opacity:1"/><stop offset="1" style="stop-color:rgb(26,26,26);stop-opacity:1"/></linearGradient>
        <linearGradient id="_Linear15" x1="0" y1="0" x2="1" y2="0" gradientUnits="userSpaceOnUse" gradientTransform="matrix(2.80593e-16,4.58243,-4.58243,2.80593e-16,-153.19,611.863)"><stop offset="0" style="stop-color:rgb(250,100,0);stop-opacity:1"/><stop offset="1" style="stop-color:rgb(160,64,0);stop-opacity:1"/></linearGradient>
        <linearGradient id="_Linear16" x1="0" y1="0" x2="1" y2="0" gradientUnits="userSpaceOnUse" gradientTransform="matrix(1.56482,0,0,1.56482,-157.617,614.154)"><stop offset="0" style="stop-color:rgb(15,15,15);stop-opacity:0.24"/><stop offset="1" style="stop-color:rgb(26,26,26);stop-opacity:0"/></linearGradient>
        <linearGradient id="_Linear17" x1="0" y1="0" x2="1" y2="0" gradientUnits="userSpaceOnUse" gradientTransform="matrix(6.37808e-16,10.4162,-10.4162,6.37808e-16,-165.979,608.946)"><stop offset="0" style="stop-color:rgb(236,236,236);stop-opacity:1"/><stop offset="1" style="stop-color:rgb(185,185,185);stop-opacity:1"/></linearGradient>
        <linearGradient id="_Linear18" x1="0" y1="0" x2="1" y2="0" gradientUnits="userSpaceOnUse" gradientTransform="matrix(1.56482,0,0,1.56482,-173.446,614.154)"><stop offset="0" style="stop-color:rgb(15,15,15);stop-opacity:0.24"/><stop offset="1" style="stop-color:rgb(26,26,26);stop-opacity:0"/></linearGradient>
        <linearGradient id="_Linear19" x1="0" y1="0" x2="1" y2="0" gradientUnits="userSpaceOnUse" gradientTransform="matrix(6.74502e-16,11.0155,-11.0155,6.74502e-16,-177.165,608.647)"><stop offset="0" style="stop-color:rgb(250,100,0);stop-opacity:1"/><stop offset="1" style="stop-color:rgb(160,64,0);stop-opacity:1"/></linearGradient>
        <linearGradient id="_Linear20" x1="0" y1="0" x2="1" y2="0" gradientUnits="userSpaceOnUse" gradientTransform="matrix(1.939,0,0,1.939,-180.638,614.154)"><stop offset="0" style="stop-color:rgb(15,15,15);stop-opacity:0.31"/><stop offset="1" style="stop-color:rgb(26,26,26);stop-opacity:0"/></linearGradient>
        <linearGradient id="_Linear21" x1="0" y1="0" x2="1" y2="0" gradientUnits="userSpaceOnUse" gradientTransform="matrix(8.22155e-16,13.4268,-13.4268,8.22155e-16,-193.763,607.441)"><stop offset="0" style="stop-color:rgb(109,109,109);stop-opacity:1"/><stop offset="1" style="stop-color:rgb(26,26,26);stop-opacity:1"/></linearGradient>
        <linearGradient id="_Linear22" x1="0" y1="0" x2="1" y2="0" gradientUnits="userSpaceOnUse" gradientTransform="matrix(1.79487e-15,29.3124,-29.3124,1.79487e-15,239.005,599.498)"><stop offset="0" style="stop-color:rgb(109,109,109);stop-opacity:1"/><stop offset="1" style="stop-color:rgb(26,26,26);stop-opacity:1"/></linearGradient>
        <linearGradient id="_Linear23" x1="0" y1="0" x2="1" y2="0" gradientUnits="userSpaceOnUse" gradientTransform="matrix(-32.1203,3.93361e-15,-3.93361e-15,-32.1203,239.4,614.154)"><stop offset="0" style="stop-color:rgb(45,45,45);stop-opacity:0.26"/><stop offset="1" style="stop-color:rgb(26,26,26);stop-opacity:0.26"/></linearGradient>
        <linearGradient id="_Linear24" x1="0" y1="0" x2="1" y2="0" gradientUnits="userSpaceOnUse" gradientTransform="matrix(32.1203,0,0,32.1203,343.493,614.154)"><stop offset="0" style="stop-color:rgb(109,109,109);stop-opacity:0.5"/><stop offset="1" style="stop-color:rgb(26,26,26);stop-opacity:0.5"/></linearGradient>
        <linearGradient id="_Linear25" x1="0" y1="0" x2="1" y2="0" gradientUnits="userSpaceOnUse" gradientTransform="matrix(0.7251,38.8462,-38.8462,0.7251,414.129,594.731)"><stop offset="0" style="stop-color:rgb(63,138,198);stop-opacity:1"/><stop offset="1" style="stop-color:rgb(43,100,143);stop-opacity:1"/></linearGradient>
        <linearGradient id="_Linear26" x1="0" y1="0" x2="1" y2="0" gradientUnits="userSpaceOnUse" gradientTransform="matrix(0.7251,38.8462,-38.8462,0.7251,414.129,594.731)"><stop offset="0" style="stop-color:rgb(63,138,198);stop-opacity:1"/><stop offset="1" style="stop-color:rgb(43,100,143);stop-opacity:1"/></linearGradient>
        <linearGradient id="_Linear27" x1="0" y1="0" x2="1" y2="0" gradientUnits="userSpaceOnUse" gradientTransform="matrix(-2.07568,-26.3701,26.3701,-2.07568,409.77,629.603)"><stop offset="0" style="stop-color:rgb(57,126,181);stop-opacity:1"/><stop offset="1" style="stop-color:rgb(38,89,128);stop-opacity:1"/></linearGradient>
        <linearGradient id="_Linear28" x1="0" y1="0" x2="1" y2="0" gradientUnits="userSpaceOnUse" gradientTransform="matrix(-2.07568,-26.3701,26.3701,-2.07568,409.77,629.603)"><stop offset="0" style="stop-color:rgb(57,126,181);stop-opacity:1"/><stop offset="1" style="stop-color:rgb(38,89,128);stop-opacity:1"/></linearGradient>
    </defs>
</svg>
